PathFileType	4	(X/Y/Z)	10_2_96_p1_0-177_filt_butterworth.trc
DataRate	CameraRate	NumFrames	NumMarkers	Units	OrigDataRate	OrigDataStartFrame	OrigNumFrames
57.0	57.0	6	27	m	57.0	0	177
Frame#	Time	RHip			RKnee			RAnkle			RBigToe			RSmallToe			RHeel			LHip			LKnee			LAnkle			LBigToe			LSmallToe			LHeel			Neck			Head			Nose			RShoulder			RElbow			RWrist			RThumb			RIndex			RPinky			LShoulder			LElbow			LWrist			LThumb			LIndex			LPinky			
		X1	Y1	Z1	X2	Y2	Z2	X3	Y3	Z3	X4	Y4	Z4	X5	Y5	Z5	X6	Y6	Z6	X7	Y7	Z7	X8	Y8	Z8	X9	Y9	Z9	X10	Y10	Z10	X11	Y11	Z11	X12	Y12	Z12	X13	Y13	Z13	X14	Y14	Z14	X15	Y15	Z15	X16	Y16	Z16	X17	Y17	Z17	X18	Y18	Z18	X19	Y19	Z19	X20	Y20	Z20	X21	Y21	Z21	X22	Y22	Z22	X23	Y23	Z23	X24	Y24	Z24	X25	Y25	Z25	X26	Y26	Z26	X27	Y27	Z27	
0	0.0	0.3102356749764963	0.7661304096934357	0.7082634163415272	0.320717029437832	0.31822791532003114	0.769520736583685	0.3143178660394659	-0.07623302548884828	0.7803814943700191	0.27832808942971776	-0.11532453797657531	0.5945420438084521	0.3443434301646733	-0.13654724260370363	0.660015061334948	0.27616211644763433	-0.16828054168820605	0.861980526890681	0.08274580706167459	0.7439032937593242	0.7268586548315371	0.07608199920318923	0.34188844837577725	0.7310146741764998	0.08394792666695315	-0.06258105338471513	0.7423442070453496	0.12275945813060567	-0.1539204535742599	0.6328814415014815	0.05680732434491985	-0.1164535744418355	0.6283272954316774	0.10164720477710754	-0.14476333286124093	0.8339824935120632	0.20663267973503482	1.3167267615345124	0.7160520988845577	0.22537414431289232	1.5615375267118163	0.6773903799038665	0.22294155878520078	1.4489195239559847	0.6258634440277204	0.3767467749485574	1.2042294623757142	0.7231208320431908	0.38490150450714267	0.9258032812227039	0.6623346413903937	0.28332711785489123	0.7704225065248337	0.5150321153969952	0.21962418780608242	0.7000469762142536	0.4719611210004504	0.20077736015964476	0.6813738112442843	0.49760061228972896	0.2108488565653373	0.6633316422348	0.5213857395972202	0.054512519170153644	1.219283452770384	0.7120012391298733	0.04202528854898779	0.9381787068271378	0.6228268307633267	0.174257426815684	0.7902783199351494	0.47496579134951034	0.266751304506238	0.7422566755123235	0.4453893409898191	0.2614573737373277	0.7188322625056958	0.43717036135672227	0.2037324403782729	0.6573210779891562	0.5025603785475096	
1	0.0175438596491228	0.3100546934883225	0.7659133414652567	0.7089360062228194	0.3200547457489217	0.31840549042909644	0.768767036663961	0.3134695496150936	-0.07934400221341271	0.7839306102212632	0.27527583159399543	-0.11808112917331083	0.593645900233899	0.34298743673059395	-0.13478624312003717	0.6574527647631193	0.2751345029633317	-0.16960831134714519	0.863973492386405	0.08412707935951684	0.7437197373479987	0.7272773930174219	0.07633584884782697	0.3429736908474229	0.7319203733910387	0.08423721356875531	-0.06176953159051227	0.7423161791683607	0.1224973801896319	-0.14809588212563093	0.619865521685406	0.05696448861922758	-0.11631692601234458	0.6279914947758737	0.10237031076956526	-0.14459369867156013	0.8356624746172185	0.20327827144451094	1.3139123743664942	0.7245701410351714	0.22450479171621915	1.5625503689010964	0.676484675827167	0.2232926087609482	1.4487970820350449	0.6252448905390319	0.37490393580269377	1.2052382591030395	0.728972836168195	0.3853249548939147	0.9262786286473829	0.6642765434133755	0.2814328770325048	0.7720652970405512	0.5080163135726188	0.21479017038241172	0.6961252476556563	0.4842494749111677	0.19829878224093286	0.6821775524457556	0.4961941769061359	0.2092444178910152	0.666348845402754	0.5202097169828032	0.05271108463501585	1.2194246342181043	0.7113816026847932	0.042195677830114846	0.9383770954159796	0.6227541719465562	0.16960001615644063	0.7887039221566271	0.47873847129037694	0.26533885614292935	0.7421583524468391	0.4482154316090531	0.25948079581656	0.7171368855281719	0.440764857357	0.20306848839654768	0.6571740013502858	0.5025996739274251	
2	0.0350877192982456	0.3099701540632667	0.765712663490949	0.7093067250128772	0.3194760723003278	0.31861891669101416	0.7681145996259832	0.3126971077702232	-0.08207672350230127	0.7870936171575152	0.2735193810585091	-0.11949557390259265	0.592327036060174	0.3418174824006996	-0.13404593833753448	0.6563680837240785	0.2743030555850612	-0.17078109261844238	0.8656281467215567	0.08528658819128401	0.7434199151125851	0.7271479862199899	0.07652745493510692	0.3436808351459184	0.7326013746621521	0.08439279753171766	-0.06106552178819026	0.742224872674266	0.12247545717539378	-0.14416741333030644	0.6112614460407974	0.0570496922314299	-0.11624522106916198	0.6277709248833965	0.10299639452560917	-0.1444826341749804	0.837203612864677	0.20140135971365505	1.3121100826953265	0.729311779072769	0.22436044917342665	1.5632857437356629	0.6764727867606246	0.22327283601189665	1.4487824864148418	0.6250785304485299	0.37366629797425055	1.2057232827718312	0.7330210873759684	0.3858505064181094	0.9264898516954936	0.6664595821226567	0.2803665210935763	0.7730648222250269	0.5042048047057492	0.2112623721951968	0.6931155540379148	0.4939552320606748	0.19633311949858748	0.681941388659117	0.4979035268173946	0.20794438633111853	0.6684775384838602	0.5198460219734127	0.05154014749265212	1.2195260650743371	0.7107918960478355	0.04190434247514486	0.9384496213525739	0.6225398231503798	0.1666967395094284	0.7870691318887744	0.48297540730275307	0.26428496275069946	0.741967335405831	0.45091567479005434	0.25822761501816827	0.7161012415362876	0.44309948523908493	0.20288942934103255	0.6570702140635976	0.5028976270540991	
3	0.0526315789473684	0.309967333748238	0.7655314456521907	0.7094211016678363	0.3189750081225495	0.31886016428938446	0.7675579305926007	0.31199736862517863	-0.08445348813350513	0.7898918723263583	0.2728080938625692	-0.11990028306762476	0.5908251626035312	0.34085600426250007	-0.13408994190029522	0.6564184583704329	0.2736526925801753	-0.17181190608801503	0.8669774809635341	0.08624087535852587	0.7430245052712479	0.7265438737555684	0.07666460887160435	0.3440489114203991	0.7330792739011899	0.08443021253696992	-0.06046237767013178	0.7420791894065603	0.12262923560510544	-0.14179777433751156	0.6062642154998077	0.05707835082633606	-0.11622973611968612	0.6276506411170408	0.10353241258901517	-0.14442263542728417	0.838603259789557	0.2007264785383209	1.3111887169987755	0.7309662868786522	0.22477075840812952	1.5637886118709927	0.677124626782695	0.22305179000733122	1.448848059996383	0.6252201311015547	0.3729233308400791	1.2058055610155147	0.7355684602443111	0.38645499110122356	0.9265193331176093	0.66893353940585	0.2799764810940614	0.7735228514567125	0.5029910934980635	0.2089137950199455	0.6909101161078548	0.5013394234156154	0.19489422176070337	0.6809535609001657	0.5018534184162742	0.20692478398005074	0.6698621609113165	0.5200958405070997	0.05086578564697347	1.2196092800353504	0.7101511631329758	0.041279355953269904	0.9384288817070569	0.6222275787184667	0.16521638128306718	0.7854246240016275	0.48747976115374836	0.26354144746867425	0.7417091178459185	0.4534213417086684	0.2575409179976112	0.7155383329029736	0.44465230894899843	0.20310010694569267	0.6569845360071271	0.50339322280718	
4	0.0701754385964912	0.3100315095901454	0.7653727578306596	0.7093246651438327	0.3185455522460857	0.3191212034078078	0.7670915346866636	0.31136716030028394	-0.08649659488501532	0.792346732875375	0.2728913260454864	-0.11962766757161043	0.5893799911802238	0.3401254394035055	-0.13468186745242008	0.6572613288547896	0.27316833221602643	-0.1727137723417796	0.8680544861797352	0.08700648266279215	0.7425541860421514	0.7255384949404853	0.0767551020638946	0.34411694982000146	0.733375667019502	0.08436499256564182	-0.059953452928718676	0.7418880312087387	0.12289426199598104	-0.14064969229647126	0.6040688309945891	0.057065880048755305	-0.11626174767131545	0.627615698839602	0.10398532150355917	-0.14440619848425443	0.8398587669269768	0.20097816191436232	1.3110171077546073	0.7302229383341226	0.22556536114394238	1.5641039339625635	0.6782101099718336	0.22279902021653697	1.4489661256806763	0.6255254598434465	0.37256450377703076	1.2056061214675167	0.7369178293510232	0.3871152409647538	0.926449455664303	0.6717481971505688	0.2801111880899157	0.7735411541140594	0.5037686846512388	0.20761744063216556	0.6894011546123022	0.5066630799426333	0.19399593885537528	0.6795023101846996	0.5071686080955439	0.20616163293221523	0.6706471521183207	0.5207603585219147	0.05055407700189088	1.219695813797412	0.7093784478541895	0.040448791733682064	0.9383474735495654	0.6218612329944864	0.16482772588577693	0.7838210733652236	0.4920546946104729	0.26306013343597956	0.741409193223721	0.4556637035407408	0.2572637914103474	0.7152611620011615	0.44590139243276183	0.20360536494449313	0.6568917870589105	0.5040254460663159	
5	0.087719298245614	0.31014795863589795	0.7652396699080339	0.709062944397002	0.31818170370143567	0.31939400422988495	0.7667099170310213	0.3108033109158631	-0.08822834253482292	0.7944795559521489	0.27351843364657175	-0.11901013831775938	0.5882312331065057	0.33964822491122637	-0.13558532863801287	0.6585541353297572	0.2728348927599669	-0.17349971196565328	0.8688921534375581	0.08759995190563265	0.7420296356434604	0.7242052890910677	0.07680672591855296	0.34392398049386086	0.7335121499284375	0.0842126715988631	-0.05953210125633347	0.7416602999242959	0.12320608286523504	-0.14038589435641546	0.6038702934572936	0.05702769554349702	-0.11633253223145373	0.6276511534138753	0.10436207781301704	-0.14442581940167343	0.8409674858120547	0.20188094383763364	1.3114640854405868	0.7277710073204824	0.22657389910448036	1.564276670665852	0.6794991504064968	0.22268407610879945	1.4491090063687293	0.6258502840195459	0.37247928616195747	1.205245991761262	0.737372069273906	0.38780808803019784	0.9263626020861464	0.674953337244426	0.2806190731370952	0.773221499575516	0.5059310828669524	0.20724631080736525	0.6884808902980797	0.5101872326083723	0.19365212061069845	0.6778758775285144	0.5129738522479729	0.20563095528201583	0.6709769515380688	0.5216407619559091	0.05047109946131547	1.2198072010567893	0.7083927941254531	0.03954072328557353	0.9382379939502332	0.6214845803221085	0.16519955772597789	0.7823091548495964	0.49650336944003703	0.26279284379174195	0.7410930549958553	0.45757403146211717	0.25723932191183635	0.7150827312037797	0.4473247996363967	0.20431004707139966	0.656766787096981	0.5047332817111554	
